<?xml version="1.0"?><svg width="744.09448819" height="1052.3622047" xmlns="http://www.w3.org/2000/svg">
 <title>Human Head silhouette avatar</title>

 <metadata id="metadata7">image/svg+xmlMan silhouetteMan silhouette people person head shoulders face</metadata>
 <g>
  <title>Layer 1</title>
  <g id="layer1">
   <path fill="#c3ddf7" id="path2396" d="m250,428.160034c0,-3.459381 6.464081,-33.19104 7.559662,-34.770874c0.390381,-0.562866 1.359955,-4.208832 2.154694,-8.102203c1.853821,-9.08194 5.271729,-18.840149 7.283508,-20.794861c0.864868,-0.840302 8.625824,-2.837769 17.246582,-4.438782c26.483124,-4.918396 38.155243,-8.706879 43.917877,-14.2547c2.746704,-2.644318 6.900909,-5.400269 9.231537,-6.124298c3.70285,-1.150391 4.237457,-1.882324 4.237457,-5.801361c0,-2.466705 -0.846008,-5.566742 -1.880005,-6.889038c-1.034058,-1.322266 -2.334991,-4.872253 -2.890961,-7.888855c-0.556061,-3.016602 -2.171753,-6.465912 -3.590515,-7.665131c-1.418762,-1.199249 -2.579559,-2.729797 -2.579559,-3.401154c0,-0.671417 -1.384735,-2.889832 -3.077179,-4.929871c-2.624817,-3.16394 -3.102356,-5.351501 -3.248596,-14.881317c-0.282501,-18.411499 1.488495,-26.836517 7.273895,-34.604263c8.168915,-10.967987 23.944489,-18.56459 38.625061,-18.599625c5.736389,-0.013702 8.146606,0.579056 10.555389,2.595779c1.819061,1.522949 6.093811,3.032272 10.244171,3.616928c8.257446,1.163315 15.683899,5.836624 19.289703,12.138611c1.812744,3.168304 2.391693,7.183838 2.393311,16.600311c0.001221,6.963776 0.603027,12.751984 1.36972,13.174286c3.719025,2.04837 0.249664,16.200928 -5.584564,22.781586c-2.193878,2.474487 -4.002319,5.491089 -4.01886,6.703522c-0.01651,1.212463 -1.247375,4.595367 -2.735229,7.517548c-4.941498,9.705109 -3.241058,19.310394 3.799103,21.46048c1.31189,0.400604 4.539307,3.196747 7.171936,6.213623c2.632721,3.016907 6.325348,5.795197 8.205841,6.174011c1.880493,0.378876 10.313721,3.103333 18.740448,6.054474c8.426819,2.951111 15.732147,5.365662 16.234161,5.365662c0.501984,0 3.578766,1.50824 6.837189,3.351807c5.823059,3.294342 8.790527,7.691864 8.790527,13.026489c0,1.434143 1.272644,4.780243 2.828094,7.435791c2.503143,4.273529 4.206879,12.468994 7.654968,36.82254l0.733459,5.180023l-116.386444,0l-116.386383,0l0,-3.067139z"/>
  </g>
 </g>
</svg>